<?xml version="1.0" standalone="no"?>
<!DOCTYPE svg PUBLIC "-//W3C//DTD SVG 20010904//EN"
 "http://www.w3.org/TR/2001/REC-SVG-20010904/DTD/svg10.dtd">
<svg version="1.0" xmlns="http://www.w3.org/2000/svg"
 width="1024.000000pt" height="1024.000000pt" viewBox="0 0 1024.000000 1024.000000"
 preserveAspectRatio="xMidYMid meet">
<metadata>
Created by potrace 1.11, written by Peter Selinger 2001-2013
</metadata>
<g transform="translate(0.000000,1024.000000) scale(0.100000,-0.100000)"
fill="#000000" stroke="none">
<path d="M3075 9933 c-194 -16 -480 -80 -694 -155 -508 -178 -1103 -541 -1597
-973 -75 -66 -224 -209 -224 -216 0 -9 778 -399 975 -489 66 -30 139 -64 163
-75 l43 -20 -53 -40 c-62 -47 -307 -289 -364 -359 -21 -27 -47 -58 -58 -70
-10 -11 -26 -32 -35 -46 -9 -14 -19 -29 -24 -35 -129 -166 -298 -474 -392
-714 -71 -183 -166 -516 -189 -661 -3 -19 -8 -46 -11 -60 -12 -60 -15 -78 -20
-120 -4 -25 -8 -56 -10 -70 -2 -14 -7 -52 -10 -85 -4 -33 -9 -73 -11 -90 -26
-206 -26 -871 1 -1060 2 -16 6 -54 10 -84 3 -29 10 -85 16 -125 5 -39 12 -85
14 -102 4 -25 56 -280 69 -334 54 -222 153 -513 241 -705 38 -83 119 -249 135
-275 5 -8 31 -52 57 -98 26 -46 53 -91 58 -100 59 -97 190 -284 257 -367 26
-33 52 -64 56 -70 93 -120 369 -402 507 -520 44 -37 92 -78 106 -90 14 -12 82
-65 150 -117 686 -522 1589 -918 2619 -1148 52 -12 106 -24 120 -26 14 -3 57
-11 95 -19 39 -8 84 -17 100 -20 17 -3 71 -12 120 -21 50 -8 108 -18 130 -20
22 -3 65 -9 95 -14 30 -5 78 -12 105 -15 28 -3 61 -8 75 -10 53 -8 187 -19
222 -18 25 1 106 36 270 117 340 169 531 276 876 490 70 44 129 83 130 88 2 4
7 8 12 8 9 0 263 172 370 251 36 27 85 63 110 81 25 18 49 36 55 40 23 17 341
273 351 282 6 6 37 34 69 61 56 48 114 99 194 173 160 148 414 412 526 547 28
33 53 62 56 65 12 10 186 237 246 320 135 189 261 397 363 600 59 117 130 268
130 276 0 3 8 24 19 47 16 36 34 85 91 247 26 74 86 299 104 390 2 14 10 50
16 80 13 66 16 88 25 160 4 30 9 63 10 72 27 144 27 695 -1 908 -1 14 -6 57
-10 95 -3 39 -8 73 -10 77 -2 3 -7 30 -10 60 -3 29 -8 56 -10 59 -2 3 -6 21
-9 40 -30 189 -142 559 -234 774 -174 405 -418 753 -737 1055 -265 250 -602
465 -944 600 -100 39 -138 60 -113 60 12 0 70 32 458 258 138 80 257 151 265
158 12 12 1 26 -75 102 -375 369 -841 613 -1350 707 -49 10 -107 19 -130 21
-22 2 -74 6 -115 10 -126 11 -425 4 -449 -10 -3 -2 -24 -7 -46 -10 -67 -11
-186 -46 -270 -81 -294 -122 -522 -348 -665 -660 -36 -78 -90 -237 -90 -264 0
-41 -15 -23 -70 83 -75 148 -187 313 -290 431 -75 86 -239 240 -325 305 -404
307 -856 456 -1405 464 -107 1 -213 1 -235 -1z"/>
</g>
</svg>
